<svg width="476" height="24" viewBox="0 0 476 24" fill="none" xmlns="http://www.w3.org/2000/svg">
<path d="M55.0624 22.5158H57.0164V23H54.4329V22.5158C54.788 22.1417 55.0985 21.8113 55.3643 21.5246C55.6302 21.2378 55.8134 21.0356 55.9141 20.9179C56.1039 20.6862 56.2321 20.4992 56.2986 20.3568C56.365 20.2125 56.3983 20.0653 56.3983 19.9153C56.3983 19.6779 56.328 19.4918 56.1875 19.357C56.0489 19.2222 55.858 19.1548 55.615 19.1548C55.4422 19.1548 55.2609 19.1861 55.071 19.2488C54.8811 19.3114 54.6798 19.4064 54.4671 19.5336V18.9526C54.6627 18.8595 54.8545 18.7893 55.0425 18.7418C55.2324 18.6943 55.4194 18.6706 55.6036 18.6706C56.0195 18.6706 56.3537 18.7817 56.6062 19.0038C56.8607 19.2241 56.9879 19.5137 56.9879 19.8726C56.9879 20.0548 56.9452 20.2371 56.8597 20.4194C56.7762 20.6017 56.6394 20.803 56.4495 21.0233C56.3432 21.1467 56.1884 21.3176 55.9853 21.536C55.784 21.7543 55.4764 22.0809 55.0624 22.5158ZM59.2694 18.6848C59.7232 18.6848 60.0659 18.87 60.2976 19.2402C60.5312 19.6105 60.6479 20.1583 60.6479 20.8837C60.6479 21.6091 60.5312 22.1569 60.2976 22.5272C60.0659 22.8975 59.7232 23.0826 59.2694 23.0826C58.8155 23.0826 58.4728 22.8975 58.2411 22.5272C58.0095 22.1569 57.8936 21.6091 57.8936 20.8837C57.8936 20.1583 58.0095 19.6105 58.2411 19.2402C58.4728 18.87 58.8155 18.6848 59.2694 18.6848ZM59.2694 22.6269C59.539 22.6269 59.7393 22.4835 59.8704 22.1968C60.0033 21.91 60.0697 21.4724 60.0697 20.8837C60.0697 20.5704 60.0508 20.2875 60.0128 20.0349L58.657 22.1569C58.7994 22.4702 59.0035 22.6269 59.2694 22.6269ZM59.2694 19.1405C59.0016 19.1405 58.8013 19.2839 58.6684 19.5706C58.5374 19.8574 58.4718 20.2951 58.4718 20.8837C58.4718 21.1514 58.4899 21.4021 58.526 21.6357L59.8533 19.5194C59.709 19.2668 59.5143 19.1405 59.2694 19.1405Z" fill="white"/>
<path d="M138.062 22.5158H140.016V23H137.433V22.5158C137.788 22.1417 138.098 21.8113 138.364 21.5246C138.63 21.2378 138.813 21.0356 138.914 20.9179C139.104 20.6862 139.232 20.4992 139.299 20.3568C139.365 20.2125 139.398 20.0653 139.398 19.9153C139.398 19.6779 139.328 19.4918 139.188 19.357C139.049 19.2222 138.858 19.1548 138.615 19.1548C138.442 19.1548 138.261 19.1861 138.071 19.2488C137.881 19.3114 137.68 19.4064 137.467 19.5336V18.9526C137.663 18.8595 137.854 18.7893 138.042 18.7418C138.232 18.6943 138.419 18.6706 138.604 18.6706C139.019 18.6706 139.354 18.7817 139.606 19.0038C139.861 19.2241 139.988 19.5137 139.988 19.8726C139.988 20.0548 139.945 20.2371 139.86 20.4194C139.776 20.6017 139.639 20.803 139.45 21.0233C139.343 21.1467 139.188 21.3176 138.985 21.536C138.784 21.7543 138.476 22.0809 138.062 22.5158ZM142.608 19.2716L141.267 21.5189H142.608V19.2716ZM142.514 18.7475H143.181V21.5189H143.748V21.986H143.181V23H142.608V21.986H140.805V21.442L142.514 18.7475Z" fill="white"/>
<path d="M222.062 22.5158H224.016V23H221.433V22.5158C221.788 22.1417 222.098 21.8113 222.364 21.5246C222.63 21.2378 222.813 21.0356 222.914 20.9179C223.104 20.6862 223.232 20.4992 223.299 20.3568C223.365 20.2125 223.398 20.0653 223.398 19.9153C223.398 19.6779 223.328 19.4918 223.188 19.357C223.049 19.2222 222.858 19.1548 222.615 19.1548C222.442 19.1548 222.261 19.1861 222.071 19.2488C221.881 19.3114 221.68 19.4064 221.467 19.5336V18.9526C221.663 18.8595 221.854 18.7893 222.042 18.7418C222.232 18.6943 222.419 18.6706 222.604 18.6706C223.019 18.6706 223.354 18.7817 223.606 19.0038C223.861 19.2241 223.988 19.5137 223.988 19.8726C223.988 20.0548 223.945 20.2371 223.86 20.4194C223.776 20.6017 223.639 20.803 223.45 21.0233C223.343 21.1467 223.188 21.3176 222.985 21.536C222.784 21.7543 222.476 22.0809 222.062 22.5158ZM226.269 20.9805C226.013 20.9805 225.815 21.0527 225.674 21.197C225.535 21.3394 225.466 21.5417 225.466 21.8037C225.466 22.0658 225.536 22.2699 225.677 22.4161C225.819 22.5604 226.017 22.6326 226.269 22.6326C226.528 22.6326 226.726 22.5614 226.865 22.4189C227.005 22.2746 227.075 22.0696 227.075 21.8037C227.075 21.5436 227.004 21.3413 226.862 21.197C226.721 21.0527 226.524 20.9805 226.269 20.9805ZM225.768 20.7413C225.523 20.6786 225.331 20.5618 225.193 20.391C225.056 20.2201 224.988 20.014 224.988 19.7729C224.988 19.4349 225.103 19.1671 225.332 18.9696C225.562 18.7703 225.874 18.6706 226.269 18.6706C226.666 18.6706 226.98 18.7703 227.209 18.9696C227.439 19.1671 227.554 19.4349 227.554 19.7729C227.554 20.014 227.485 20.2201 227.346 20.391C227.209 20.5618 227.018 20.6786 226.774 20.7413C227.058 20.804 227.276 20.9302 227.426 21.1201C227.578 21.31 227.654 21.5559 227.654 21.8578C227.654 22.2414 227.531 22.5414 227.286 22.7579C227.041 22.9744 226.702 23.0826 226.269 23.0826C225.836 23.0826 225.497 22.9753 225.253 22.7607C225.009 22.5443 224.888 22.2452 224.888 21.8635C224.888 21.5597 224.963 21.3129 225.113 21.123C225.265 20.9312 225.483 20.804 225.768 20.7413ZM225.56 19.827C225.56 20.0548 225.621 20.2286 225.742 20.3482C225.864 20.4679 226.04 20.5277 226.269 20.5277C226.501 20.5277 226.678 20.4679 226.799 20.3482C226.921 20.2286 226.981 20.0548 226.981 19.827C226.981 19.5953 226.921 19.4187 226.799 19.2972C226.68 19.1757 226.503 19.1149 226.269 19.1149C226.04 19.1149 225.864 19.1766 225.742 19.3C225.621 19.4216 225.56 19.5972 225.56 19.827Z" fill="white"/>
<path d="M309.21 20.7242C309.489 20.7983 309.703 20.9302 309.851 21.1201C309.999 21.3081 310.073 21.5436 310.073 21.8265C310.073 22.2177 309.941 22.5253 309.677 22.7493C309.415 22.9715 309.052 23.0826 308.587 23.0826C308.391 23.0826 308.192 23.0646 307.988 23.0285C307.785 22.9924 307.586 22.9402 307.39 22.8718V22.2993C307.584 22.4 307.775 22.475 307.963 22.5243C308.151 22.5737 308.338 22.5984 308.524 22.5984C308.839 22.5984 309.081 22.5272 309.25 22.3848C309.419 22.2424 309.504 22.0373 309.504 21.7695C309.504 21.5227 309.419 21.3271 309.25 21.1828C309.081 21.0366 308.852 20.9635 308.564 20.9635H308.125V20.4906H308.564C308.828 20.4906 309.034 20.4327 309.182 20.3169C309.33 20.2011 309.404 20.0397 309.404 19.8327C309.404 19.6143 309.335 19.4472 309.196 19.3314C309.059 19.2136 308.864 19.1548 308.609 19.1548C308.44 19.1548 308.266 19.1738 308.085 19.2118C307.905 19.2497 307.716 19.3067 307.518 19.3826V18.8529C307.748 18.7921 307.952 18.7465 308.131 18.7161C308.311 18.6858 308.471 18.6706 308.609 18.6706C309.023 18.6706 309.354 18.775 309.601 18.9839C309.849 19.1909 309.974 19.4662 309.974 19.8099C309.974 20.0435 309.908 20.2381 309.777 20.3938C309.648 20.5495 309.459 20.6596 309.21 20.7242ZM311.577 22.5158H313.531V23H310.948V22.5158C311.303 22.1417 311.613 21.8113 311.879 21.5246C312.145 21.2378 312.328 21.0356 312.429 20.9179C312.619 20.6862 312.747 20.4992 312.813 20.3568C312.88 20.2125 312.913 20.0653 312.913 19.9153C312.913 19.6779 312.843 19.4918 312.702 19.357C312.564 19.2222 312.373 19.1548 312.13 19.1548C311.957 19.1548 311.776 19.1861 311.586 19.2488C311.396 19.3114 311.195 19.4064 310.982 19.5336V18.9526C311.178 18.8595 311.369 18.7893 311.557 18.7418C311.747 18.6943 311.934 18.6706 312.118 18.6706C312.534 18.6706 312.868 18.7817 313.121 19.0038C313.375 19.2241 313.503 19.5137 313.503 19.8726C313.503 20.0548 313.46 20.2371 313.375 20.4194C313.291 20.6017 313.154 20.803 312.964 21.0233C312.858 21.1467 312.703 21.3176 312.5 21.536C312.299 21.7543 311.991 22.0809 311.577 22.5158Z" fill="white"/>
<path d="M402.21 20.7242C402.489 20.7983 402.703 20.9302 402.851 21.1201C402.999 21.3081 403.073 21.5436 403.073 21.8265C403.073 22.2177 402.941 22.5253 402.677 22.7493C402.415 22.9715 402.052 23.0826 401.587 23.0826C401.391 23.0826 401.192 23.0646 400.988 23.0285C400.785 22.9924 400.586 22.9402 400.39 22.8718V22.2993C400.584 22.4 400.775 22.475 400.963 22.5243C401.151 22.5737 401.338 22.5984 401.524 22.5984C401.839 22.5984 402.081 22.5272 402.25 22.3848C402.419 22.2424 402.504 22.0373 402.504 21.7695C402.504 21.5227 402.419 21.3271 402.25 21.1828C402.081 21.0366 401.852 20.9635 401.564 20.9635H401.125V20.4906H401.564C401.828 20.4906 402.034 20.4327 402.182 20.3169C402.33 20.2011 402.404 20.0397 402.404 19.8327C402.404 19.6143 402.335 19.4472 402.196 19.3314C402.059 19.2136 401.864 19.1548 401.609 19.1548C401.44 19.1548 401.266 19.1738 401.085 19.2118C400.905 19.2497 400.716 19.3067 400.518 19.3826V18.8529C400.748 18.7921 400.952 18.7465 401.131 18.7161C401.311 18.6858 401.471 18.6706 401.609 18.6706C402.023 18.6706 402.354 18.775 402.601 18.9839C402.849 19.1909 402.974 19.4662 402.974 19.8099C402.974 20.0435 402.908 20.2381 402.777 20.3938C402.648 20.5495 402.459 20.6596 402.21 20.7242ZM406.337 18.8415V19.3713C406.218 19.301 406.091 19.2478 405.956 19.2118C405.821 19.1738 405.68 19.1548 405.534 19.1548C405.17 19.1548 404.893 19.2925 404.705 19.5678C404.517 19.8412 404.423 20.2447 404.423 20.7783C404.515 20.5884 404.641 20.4432 404.802 20.3425C404.964 20.24 405.149 20.1887 405.358 20.1887C405.768 20.1887 406.085 20.315 406.309 20.5675C406.535 20.8182 406.648 21.1742 406.648 21.6357C406.648 22.0952 406.532 22.4512 406.3 22.7038C406.069 22.9563 405.743 23.0826 405.323 23.0826C404.83 23.0826 404.468 22.906 404.238 22.5528C404.009 22.1977 403.894 21.6395 403.894 20.878C403.894 20.1602 404.031 19.6134 404.307 19.2374C404.584 18.8595 404.985 18.6706 405.509 18.6706C405.649 18.6706 405.79 18.6858 405.93 18.7161C406.071 18.7446 406.206 18.7864 406.337 18.8415ZM405.312 20.6388C405.067 20.6388 404.874 20.7271 404.734 20.9036C404.593 21.0802 404.523 21.3242 404.523 21.6357C404.523 21.9471 404.593 22.1911 404.734 22.3677C404.874 22.5443 405.067 22.6326 405.312 22.6326C405.567 22.6326 405.758 22.549 405.887 22.3819C406.017 22.2129 406.081 21.9642 406.081 21.6357C406.081 21.3053 406.017 21.0565 405.887 20.8894C405.758 20.7223 405.567 20.6388 405.312 20.6388Z" fill="white"/>
<line x1="0.375" y1="8" x2="0.375" y2="13" stroke="white" stroke-width="0.75"/>
<line x1="22.375" y1="8" x2="22.375" y2="13" stroke="white" stroke-width="0.75"/>
<line x1="42.375" y1="8" x2="42.375" y2="13" stroke="white" stroke-width="0.75"/>
<line x1="62.375" y1="1" x2="62.375" y2="14" stroke="white" stroke-width="0.75"/>
<line x1="84.375" y1="8" x2="84.375" y2="13" stroke="white" stroke-width="0.75"/>
<line x1="106.375" y1="8" x2="106.375" y2="13" stroke="white" stroke-width="0.75"/>
<line x1="128.375" y1="8" x2="128.375" y2="13" stroke="white" stroke-width="0.75"/>
<line x1="146.375" y1="1" x2="146.375" y2="14" stroke="white" stroke-width="0.75"/>
<line x1="168.375" y1="8" x2="168.375" y2="13" stroke="white" stroke-width="0.75"/>
<line x1="190.375" y1="8" x2="190.375" y2="13" stroke="white" stroke-width="0.75"/>
<line x1="212.375" y1="8" x2="212.375" y2="13" stroke="white" stroke-width="0.75"/>
<line x1="229.375" y1="1" x2="229.375" y2="14" stroke="white" stroke-width="0.75"/>
<line x1="252.375" y1="7" x2="252.375" y2="12" stroke="white" stroke-width="0.75"/>
<line x1="274.375" y1="7" x2="274.375" y2="12" stroke="white" stroke-width="0.75"/>
<line x1="296.375" y1="7" x2="296.375" y2="12" stroke="white" stroke-width="0.75"/>
<line x1="318.375" x2="318.375" y2="13" stroke="white" stroke-width="0.75"/>
<line x1="341.375" y1="8" x2="341.375" y2="13" stroke="white" stroke-width="0.75"/>
<line x1="363.375" y1="8" x2="363.375" y2="13" stroke="white" stroke-width="0.75"/>
<line x1="386.375" y1="8" x2="386.375" y2="13" stroke="white" stroke-width="0.75"/>
<line x1="408.375" y1="1" x2="408.375" y2="14" stroke="white" stroke-width="0.75"/>
<line x1="431.375" y1="8" x2="431.375" y2="13" stroke="white" stroke-width="0.75"/>
<line x1="453.375" y1="8" x2="453.375" y2="13" stroke="white" stroke-width="0.75"/>
<line x1="475.375" y1="8" x2="475.375" y2="13" stroke="white" stroke-width="0.75"/>
</svg>
