<svg width="54" height="497" viewBox="0 0 54 497" fill="none" xmlns="http://www.w3.org/2000/svg">
<path d="M0.935157 10.4147H2.02271V6.50778L0.720417 7.13469V6.46276L2.01578 5.84625H2.71542V10.4147H3.78912V11H0.935157V10.4147ZM6.40756 8.54435C6.09584 8.54435 5.85454 8.63209 5.68367 8.80758C5.51512 8.98075 5.43084 9.22667 5.43084 9.54531C5.43084 9.86396 5.51627 10.1122 5.68714 10.29C5.86032 10.4655 6.10045 10.5532 6.40756 10.5532C6.72158 10.5532 6.96288 10.4666 7.13144 10.2934C7.3023 10.118 7.38774 9.86858 7.38774 9.54531C7.38774 9.22897 7.30115 8.98306 7.12797 8.80758C6.9571 8.63209 6.71697 8.54435 6.40756 8.54435ZM5.79797 8.25341C5.50011 8.17721 5.2669 8.03521 5.09834 7.82739C4.93209 7.61958 4.84896 7.36905 4.84896 7.07581C4.84896 6.6648 4.98866 6.33922 5.26805 6.09909C5.54744 5.85664 5.92728 5.73541 6.40756 5.73541C6.89014 5.73541 7.27113 5.85664 7.55052 6.09909C7.82992 6.33922 7.96961 6.6648 7.96961 7.07581C7.96961 7.36905 7.88533 7.61958 7.71677 7.82739C7.55052 8.03521 7.31847 8.17721 7.0206 8.25341C7.36696 8.32961 7.63134 8.48316 7.81375 8.71406C7.99848 8.94496 8.09084 9.24398 8.09084 9.61112C8.09084 10.0775 7.94191 10.4424 7.64404 10.7056C7.34618 10.9688 6.93401 11.1004 6.40756 11.1004C5.8811 11.1004 5.46894 10.97 5.17107 10.7091C4.87551 10.4458 4.72774 10.0822 4.72774 9.61805C4.72774 9.2486 4.81894 8.94843 5.00136 8.71752C5.18608 8.48431 5.45162 8.32961 5.79797 8.25341ZM5.54513 7.14161C5.54513 7.4187 5.61902 7.62997 5.7668 7.77544C5.91458 7.92091 6.12816 7.99364 6.40756 7.99364C6.68926 7.99364 6.904 7.92091 7.05177 7.77544C7.19955 7.62997 7.27344 7.4187 7.27344 7.14161C7.27344 6.85991 7.19955 6.64517 7.05177 6.49739C6.90631 6.34962 6.69157 6.27573 6.40756 6.27573C6.12816 6.27573 5.91458 6.35077 5.7668 6.50086C5.61902 6.64863 5.54513 6.86222 5.54513 7.14161ZM10.6816 5.75273C11.2334 5.75273 11.6502 5.97786 11.9319 6.42812C12.2159 6.87838 12.3579 7.54454 12.3579 8.42659C12.3579 9.30864 12.2159 9.97479 11.9319 10.4251C11.6502 10.8753 11.2334 11.1004 10.6816 11.1004C10.1297 11.1004 9.71293 10.8753 9.43123 10.4251C9.14953 9.97479 9.00868 9.30864 9.00868 8.42659C9.00868 7.54454 9.14953 6.87838 9.43123 6.42812C9.71293 5.97786 10.1297 5.75273 10.6816 5.75273ZM10.6816 10.5463C11.0095 10.5463 11.2531 10.3719 11.4124 10.0233C11.574 9.67462 11.6548 9.14239 11.6548 8.42659C11.6548 8.0456 11.6317 7.70155 11.5856 7.39445L9.93691 9.97479C10.1101 10.3558 10.3583 10.5463 10.6816 10.5463ZM10.6816 6.3069C10.356 6.3069 10.1124 6.48123 9.95076 6.82989C9.79144 7.17856 9.71178 7.71079 9.71178 8.42659C9.71178 8.75216 9.73371 9.05695 9.77758 9.34096L11.3916 6.76755C11.2161 6.46045 10.9794 6.3069 10.6816 6.3069ZM14.9556 5.75273C15.5074 5.75273 15.9242 5.97786 16.2059 6.42812C16.4899 6.87838 16.6319 7.54454 16.6319 8.42659C16.6319 9.30864 16.4899 9.97479 16.2059 10.4251C15.9242 10.8753 15.5074 11.1004 14.9556 11.1004C14.4037 11.1004 13.9869 10.8753 13.7052 10.4251C13.4235 9.97479 13.2827 9.30864 13.2827 8.42659C13.2827 7.54454 13.4235 6.87838 13.7052 6.42812C13.9869 5.97786 14.4037 5.75273 14.9556 5.75273ZM14.9556 10.5463C15.2835 10.5463 15.5271 10.3719 15.6864 10.0233C15.848 9.67462 15.9288 9.14239 15.9288 8.42659C15.9288 8.0456 15.9057 7.70155 15.8596 7.39445L14.2109 9.97479C14.3841 10.3558 14.6323 10.5463 14.9556 10.5463ZM14.9556 6.3069C14.63 6.3069 14.3864 6.48123 14.2248 6.82989C14.0654 7.17856 13.9858 7.71079 13.9858 8.42659C13.9858 8.75216 14.0077 9.05695 14.0516 9.34096L15.6656 6.76755C15.4901 6.46045 15.2534 6.3069 14.9556 6.3069Z" fill="white"/>
<path d="M0.935157 126.415H2.02271V122.508L0.720417 123.135V122.463L2.01578 121.846H2.71542V126.415H3.78912V127H0.935157V126.415ZM6.81972 122.466L5.18839 125.199H6.81972V122.466ZM6.70542 121.829H7.51589V125.199H8.20513V125.767H7.51589V127H6.81972V125.767H4.62729V125.105L6.70542 121.829ZM11.0937 122.466L9.4624 125.199H11.0937V122.466ZM10.9794 121.829H11.7899V125.199H12.4791V125.767H11.7899V127H11.0937V125.767H8.90131V125.105L10.9794 121.829ZM14.9556 121.753C15.5074 121.753 15.9242 121.978 16.2059 122.428C16.4899 122.878 16.6319 123.545 16.6319 124.427C16.6319 125.309 16.4899 125.975 16.2059 126.425C15.9242 126.875 15.5074 127.1 14.9556 127.1C14.4037 127.1 13.9869 126.875 13.7052 126.425C13.4235 125.975 13.2827 125.309 13.2827 124.427C13.2827 123.545 13.4235 122.878 13.7052 122.428C13.9869 121.978 14.4037 121.753 14.9556 121.753ZM14.9556 126.546C15.2835 126.546 15.5271 126.372 15.6864 126.023C15.848 125.675 15.9288 125.142 15.9288 124.427C15.9288 124.046 15.9057 123.702 15.8596 123.394L14.2109 125.975C14.3841 126.356 14.6323 126.546 14.9556 126.546ZM14.9556 122.307C14.63 122.307 14.3864 122.481 14.2248 122.83C14.0654 123.179 13.9858 123.711 13.9858 124.427C13.9858 124.752 14.0077 125.057 14.0516 125.341L15.6656 122.768C15.4901 122.46 15.2534 122.307 14.9556 122.307Z" fill="white"/>
<path d="M0.935157 250.415H2.02271V246.508L0.720417 247.135V246.463L2.01578 245.846H2.71542V250.415H3.78912V251H0.935157V250.415ZM6.40756 245.753C6.95941 245.753 7.37619 245.978 7.65789 246.428C7.94191 246.878 8.08391 247.545 8.08391 248.427C8.08391 249.309 7.94191 249.975 7.65789 250.425C7.37619 250.875 6.95941 251.1 6.40756 251.1C5.8557 251.1 5.43892 250.875 5.15722 250.425C4.87551 249.975 4.73466 249.309 4.73466 248.427C4.73466 247.545 4.87551 246.878 5.15722 246.428C5.43892 245.978 5.8557 245.753 6.40756 245.753ZM6.40756 250.546C6.73544 250.546 6.97904 250.372 7.13836 250.023C7.3 249.675 7.38081 249.142 7.38081 248.427C7.38081 248.046 7.35772 247.702 7.31154 247.394L5.66289 249.975C5.83607 250.356 6.08429 250.546 6.40756 250.546ZM6.40756 246.307C6.08198 246.307 5.83838 246.481 5.67675 246.83C5.51742 247.179 5.43776 247.711 5.43776 248.427C5.43776 248.752 5.4597 249.057 5.50357 249.341L7.11758 246.768C6.9421 246.46 6.70542 246.307 6.40756 246.307ZM10.6816 248.544C10.3698 248.544 10.1286 248.632 9.95769 248.808C9.78913 248.981 9.70485 249.227 9.70485 249.545C9.70485 249.864 9.79028 250.112 9.96115 250.29C10.1343 250.465 10.3745 250.553 10.6816 250.553C10.9956 250.553 11.2369 250.467 11.4054 250.293C11.5763 250.118 11.6618 249.869 11.6618 249.545C11.6618 249.229 11.5752 248.983 11.402 248.808C11.2311 248.632 10.991 248.544 10.6816 248.544ZM10.072 248.253C9.77412 248.177 9.54091 248.035 9.37235 247.827C9.2061 247.62 9.12297 247.369 9.12297 247.076C9.12297 246.665 9.26267 246.339 9.54206 246.099C9.82145 245.857 10.2013 245.735 10.6816 245.735C11.1642 245.735 11.5451 245.857 11.8245 246.099C12.1039 246.339 12.2436 246.665 12.2436 247.076C12.2436 247.369 12.1593 247.62 11.9908 247.827C11.8245 248.035 11.5925 248.177 11.2946 248.253C11.641 248.33 11.9054 248.483 12.0878 248.714C12.2725 248.945 12.3649 249.244 12.3649 249.611C12.3649 250.078 12.2159 250.442 11.9181 250.706C11.6202 250.969 11.208 251.1 10.6816 251.1C10.1551 251.1 9.74295 250.97 9.44508 250.709C9.14953 250.446 9.00175 250.082 9.00175 249.618C9.00175 249.249 9.09296 248.948 9.27537 248.718C9.46009 248.484 9.72563 248.33 10.072 248.253ZM9.81915 247.142C9.81915 247.419 9.89303 247.63 10.0408 247.775C10.1886 247.921 10.4022 247.994 10.6816 247.994C10.9633 247.994 11.178 247.921 11.3258 247.775C11.4736 247.63 11.5475 247.419 11.5475 247.142C11.5475 246.86 11.4736 246.645 11.3258 246.497C11.1803 246.35 10.9656 246.276 10.6816 246.276C10.4022 246.276 10.1886 246.351 10.0408 246.501C9.89303 246.649 9.81915 246.862 9.81915 247.142ZM14.9556 245.753C15.5074 245.753 15.9242 245.978 16.2059 246.428C16.4899 246.878 16.6319 247.545 16.6319 248.427C16.6319 249.309 16.4899 249.975 16.2059 250.425C15.9242 250.875 15.5074 251.1 14.9556 251.1C14.4037 251.1 13.9869 250.875 13.7052 250.425C13.4235 249.975 13.2827 249.309 13.2827 248.427C13.2827 247.545 13.4235 246.878 13.7052 246.428C13.9869 245.978 14.4037 245.753 14.9556 245.753ZM14.9556 250.546C15.2835 250.546 15.5271 250.372 15.6864 250.023C15.848 249.675 15.9288 249.142 15.9288 248.427C15.9288 248.046 15.9057 247.702 15.8596 247.394L14.2109 249.975C14.3841 250.356 14.6323 250.546 14.9556 250.546ZM14.9556 246.307C14.63 246.307 14.3864 246.481 14.2248 246.83C14.0654 247.179 13.9858 247.711 13.9858 248.427C13.9858 248.752 14.0077 249.057 14.0516 249.341L15.6656 246.768C15.4901 246.46 15.2534 246.307 14.9556 246.307Z" fill="white"/>
<path d="M0.481433 369.829H3.73716V370.127L1.88763 375H1.15682L2.95787 370.418H0.481433V369.829ZM5.56591 374.411H7.94191V375H4.80047V374.411C5.23226 373.956 5.60979 373.555 5.93305 373.206C6.25631 372.857 6.47914 372.611 6.60151 372.468C6.83242 372.186 6.98828 371.959 7.06909 371.786C7.14991 371.61 7.19032 371.431 7.19032 371.249C7.19032 370.96 7.10488 370.734 6.93401 370.57C6.76545 370.406 6.5334 370.324 6.23784 370.324C6.02772 370.324 5.80721 370.362 5.5763 370.439C5.3454 370.515 5.10064 370.63 4.84203 370.785V370.078C5.07986 369.965 5.31308 369.88 5.54167 369.822C5.77257 369.764 6.00001 369.735 6.22399 369.735C6.72966 369.735 7.13605 369.87 7.44315 370.141C7.75256 370.408 7.90727 370.761 7.90727 371.197C7.90727 371.419 7.85532 371.64 7.75141 371.862C7.64981 372.084 7.48356 372.328 7.25266 372.596C7.12335 372.746 6.93517 372.954 6.6881 373.22C6.44335 373.485 6.06928 373.882 5.56591 374.411ZM10.6816 369.753C11.2334 369.753 11.6502 369.978 11.9319 370.428C12.2159 370.878 12.3579 371.545 12.3579 372.427C12.3579 373.309 12.2159 373.975 11.9319 374.425C11.6502 374.875 11.2334 375.1 10.6816 375.1C10.1297 375.1 9.71293 374.875 9.43123 374.425C9.14953 373.975 9.00868 373.309 9.00868 372.427C9.00868 371.545 9.14953 370.878 9.43123 370.428C9.71293 369.978 10.1297 369.753 10.6816 369.753ZM10.6816 374.546C11.0095 374.546 11.2531 374.372 11.4124 374.023C11.574 373.675 11.6548 373.142 11.6548 372.427C11.6548 372.046 11.6317 371.702 11.5856 371.394L9.93691 373.975C10.1101 374.356 10.3583 374.546 10.6816 374.546ZM10.6816 370.307C10.356 370.307 10.1124 370.481 9.95076 370.83C9.79144 371.179 9.71178 371.711 9.71178 372.427C9.71178 372.752 9.73371 373.057 9.77758 373.341L11.3916 370.768C11.2161 370.46 10.9794 370.307 10.6816 370.307Z" fill="white"/>
<path d="M27.6877 492.233C28.0271 492.323 28.2869 492.483 28.467 492.714C28.6471 492.943 28.7372 493.229 28.7372 493.573C28.7372 494.049 28.5767 494.423 28.2557 494.695C27.9371 494.965 27.4949 495.1 26.9292 495.1C26.6914 495.1 26.4489 495.079 26.2018 495.035C25.9548 494.991 25.7123 494.927 25.4745 494.844V494.148C25.71 494.27 25.9421 494.362 26.1707 494.422C26.3993 494.482 26.6267 494.512 26.853 494.512C27.2363 494.512 27.5307 494.425 27.7362 494.252C27.9417 494.079 28.0445 493.829 28.0445 493.504C28.0445 493.204 27.9417 492.966 27.7362 492.79C27.5307 492.612 27.2525 492.524 26.9015 492.524H26.3681V491.949H26.9015C27.2224 491.949 27.473 491.878 27.6531 491.737C27.8332 491.596 27.9232 491.4 27.9232 491.149C27.9232 490.883 27.839 490.68 27.6704 490.539C27.5041 490.396 27.2663 490.324 26.9569 490.324C26.7514 490.324 26.539 490.347 26.3196 490.393C26.1003 490.44 25.8705 490.509 25.6304 490.601V489.957C25.9098 489.883 26.158 489.828 26.375 489.791C26.5944 489.754 26.7883 489.735 26.9569 489.735C27.4603 489.735 27.862 489.862 28.1622 490.116C28.4647 490.368 28.6159 490.703 28.6159 491.121C28.6159 491.405 28.5363 491.642 28.377 491.831C28.2199 492.02 27.9902 492.154 27.6877 492.233ZM32.7064 489.943V490.587C32.5609 490.502 32.4062 490.437 32.2423 490.393C32.0783 490.347 31.9075 490.324 31.7297 490.324C31.2863 490.324 30.9504 490.492 30.7218 490.826C30.4932 491.159 30.3789 491.65 30.3789 492.298C30.4897 492.068 30.6433 491.891 30.8395 491.769C31.0358 491.644 31.2609 491.581 31.5149 491.581C32.0137 491.581 32.3993 491.735 32.6717 492.042C32.9465 492.347 33.0839 492.78 33.0839 493.341C33.0839 493.9 32.9431 494.333 32.6614 494.64C32.3797 494.947 31.9837 495.1 31.4734 495.1C30.873 495.1 30.4331 494.886 30.1538 494.456C29.8744 494.024 29.7347 493.346 29.7347 492.42C29.7347 491.547 29.9021 490.882 30.2369 490.425C30.574 489.965 31.0612 489.735 31.6985 489.735C31.8694 489.735 32.0402 489.754 32.2111 489.791C32.382 489.825 32.5471 489.876 32.7064 489.943ZM31.4595 492.129C31.1616 492.129 30.9273 492.236 30.7564 492.451C30.5855 492.666 30.5001 492.962 30.5001 493.341C30.5001 493.72 30.5855 494.016 30.7564 494.231C30.9273 494.446 31.1616 494.553 31.4595 494.553C31.7689 494.553 32.0021 494.452 32.1591 494.248C32.3162 494.043 32.3947 493.74 32.3947 493.341C32.3947 492.939 32.3162 492.637 32.1591 492.434C32.0021 492.23 31.7689 492.129 31.4595 492.129ZM35.6816 489.753C36.2334 489.753 36.6502 489.978 36.9319 490.428C37.2159 490.878 37.3579 491.545 37.3579 492.427C37.3579 493.309 37.2159 493.975 36.9319 494.425C36.6502 494.875 36.2334 495.1 35.6816 495.1C35.1297 495.1 34.7129 494.875 34.4312 494.425C34.1495 493.975 34.0087 493.309 34.0087 492.427C34.0087 491.545 34.1495 490.878 34.4312 490.428C34.7129 489.978 35.1297 489.753 35.6816 489.753ZM35.6816 494.546C36.0095 494.546 36.2531 494.372 36.4124 494.023C36.574 493.675 36.6548 493.142 36.6548 492.427C36.6548 492.046 36.6317 491.702 36.5856 491.394L34.9369 493.975C35.1101 494.356 35.3583 494.546 35.6816 494.546ZM35.6816 490.307C35.356 490.307 35.1124 490.481 34.9508 490.83C34.7914 491.179 34.7118 491.711 34.7118 492.427C34.7118 492.752 34.7337 493.057 34.7776 493.341L36.3916 490.768C36.2161 490.46 35.9794 490.307 35.6816 490.307Z" fill="white"/>
<path d="M22 1L53 0.999999L53 27.4643M53 27.4643L53 495L22 495M53 27.4643L34.4 27.4643M53 53.9286L34.4 53.9286M53 77.4524L34.4 77.4524M53 100.976L34.4 100.976M53 127.44L22 127.44M53 153.905L34.4 153.905M53 177.429L34.4 177.429M53 200.952L34.4 200.952M53 224.476L34.4 224.476M53 250.94L22 250.94M53 274.464L34.4 274.464M53 324.452L34.4 324.452M53 347.976L34.4 347.976M53 374.44L22 374.44M53 400.905L34.4 400.905M53 424.429L34.4 424.429M53 447.952L34.4 447.952M53 300.929L34.4 300.929M53 468.536L34.4 468.536" stroke="white" stroke-width="0.752726"/>
</svg>
