<svg width="33" height="211" viewBox="0 0 33 211" fill="none" xmlns="http://www.w3.org/2000/svg">
<path d="M3.43237 195.943V196.587C3.2869 196.502 3.1322 196.437 2.96826 196.393C2.80432 196.347 2.63345 196.324 2.45565 196.324C2.01232 196.324 1.67636 196.492 1.44776 196.826C1.21917 197.159 1.10487 197.65 1.10487 198.298C1.2157 198.068 1.36925 197.891 1.56552 197.769C1.76179 197.644 1.98692 197.581 2.24091 197.581C2.73966 197.581 3.12527 197.735 3.39774 198.042C3.67251 198.347 3.8099 198.78 3.8099 199.341C3.8099 199.9 3.66905 200.333 3.38735 200.64C3.10564 200.947 2.70965 201.1 2.19935 201.1C1.599 201.1 1.15913 200.886 0.87974 200.456C0.600348 200.024 0.460651 199.346 0.460651 198.42C0.460651 197.547 0.628056 196.882 0.962865 196.425C1.29998 195.965 1.78719 195.735 2.42448 195.735C2.59535 195.735 2.76622 195.754 2.93708 195.791C3.10795 195.825 3.27305 195.876 3.43237 195.943ZM2.1855 198.129C1.88763 198.129 1.65326 198.236 1.4824 198.451C1.31153 198.666 1.22609 198.962 1.22609 199.341C1.22609 199.72 1.31153 200.016 1.4824 200.231C1.65326 200.446 1.88763 200.553 2.1855 200.553C2.49491 200.553 2.72812 200.452 2.88513 200.248C3.04215 200.043 3.12065 199.74 3.12065 199.341C3.12065 198.939 3.04215 198.637 2.88513 198.434C2.72812 198.23 2.49491 198.129 2.1855 198.129ZM6.40756 195.753C6.95941 195.753 7.37619 195.978 7.65789 196.428C7.94191 196.878 8.08391 197.545 8.08391 198.427C8.08391 199.309 7.94191 199.975 7.65789 200.425C7.37619 200.875 6.95941 201.1 6.40756 201.1C5.8557 201.1 5.43892 200.875 5.15722 200.425C4.87551 199.975 4.73466 199.309 4.73466 198.427C4.73466 197.545 4.87551 196.878 5.15722 196.428C5.43892 195.978 5.8557 195.753 6.40756 195.753ZM6.40756 200.546C6.73544 200.546 6.97904 200.372 7.13836 200.023C7.3 199.675 7.38081 199.142 7.38081 198.427C7.38081 198.046 7.35772 197.702 7.31154 197.394L5.66289 199.975C5.83607 200.356 6.08429 200.546 6.40756 200.546ZM6.40756 196.307C6.08198 196.307 5.83838 196.481 5.67675 196.83C5.51742 197.179 5.43776 197.711 5.43776 198.427C5.43776 198.752 5.4597 199.057 5.50357 199.341L7.11758 196.768C6.9421 196.46 6.70542 196.307 6.40756 196.307Z" fill="white"/>
<path d="M0.935157 5.41466H2.02271V1.50778L0.720417 2.13469V1.46276L2.01578 0.846247H2.71542V5.41466H3.78912V6H0.935157V5.41466ZM6.40756 3.54435C6.09584 3.54435 5.85454 3.63209 5.68367 3.80758C5.51512 3.98075 5.43084 4.22667 5.43084 4.54531C5.43084 4.86396 5.51627 5.11218 5.68714 5.28997C5.86032 5.46546 6.10045 5.5532 6.40756 5.5532C6.72158 5.5532 6.96288 5.46661 7.13144 5.29344C7.3023 5.11795 7.38774 4.86858 7.38774 4.54531C7.38774 4.22897 7.30115 3.98306 7.12797 3.80758C6.9571 3.63209 6.71697 3.54435 6.40756 3.54435ZM5.79797 3.25341C5.50011 3.17721 5.2669 3.03521 5.09834 2.82739C4.93209 2.61958 4.84896 2.36905 4.84896 2.07581C4.84896 1.6648 4.98866 1.33922 5.26805 1.09909C5.54744 0.856638 5.92728 0.735414 6.40756 0.735414C6.89014 0.735414 7.27113 0.856638 7.55052 1.09909C7.82992 1.33922 7.96961 1.6648 7.96961 2.07581C7.96961 2.36905 7.88533 2.61958 7.71677 2.82739C7.55052 3.03521 7.31847 3.17721 7.0206 3.25341C7.36696 3.32961 7.63134 3.48316 7.81375 3.71406C7.99848 3.94496 8.09084 4.24398 8.09084 4.61112C8.09084 5.07754 7.94191 5.44237 7.64404 5.7056C7.34618 5.96883 6.93401 6.10044 6.40756 6.10044C5.8811 6.10044 5.46894 5.96998 5.17107 5.70906C4.87551 5.44583 4.72774 5.08216 4.72774 4.61805C4.72774 4.2486 4.81894 3.94843 5.00136 3.71752C5.18608 3.48431 5.45162 3.32961 5.79797 3.25341ZM5.54513 2.14161C5.54513 2.4187 5.61902 2.62997 5.7668 2.77544C5.91458 2.92091 6.12816 2.99364 6.40756 2.99364C6.68926 2.99364 6.904 2.92091 7.05177 2.77544C7.19955 2.62997 7.27344 2.4187 7.27344 2.14161C7.27344 1.85991 7.19955 1.64517 7.05177 1.49739C6.90631 1.34962 6.69157 1.27573 6.40756 1.27573C6.12816 1.27573 5.91458 1.35077 5.7668 1.50086C5.61902 1.64863 5.54513 1.86222 5.54513 2.14161ZM10.6816 0.752732C11.2334 0.752732 11.6502 0.977862 11.9319 1.42812C12.2159 1.87838 12.3579 2.54454 12.3579 3.42659C12.3579 4.30864 12.2159 4.97479 11.9319 5.42505C11.6502 5.87531 11.2334 6.10044 10.6816 6.10044C10.1297 6.10044 9.71293 5.87531 9.43123 5.42505C9.14953 4.97479 9.00868 4.30864 9.00868 3.42659C9.00868 2.54454 9.14953 1.87838 9.43123 1.42812C9.71293 0.977862 10.1297 0.752732 10.6816 0.752732ZM10.6816 5.54628C11.0095 5.54628 11.2531 5.37194 11.4124 5.02328C11.574 4.67462 11.6548 4.14239 11.6548 3.42659C11.6548 3.0456 11.6317 2.70155 11.5856 2.39445L9.93691 4.97479C10.1101 5.35578 10.3583 5.54628 10.6816 5.54628ZM10.6816 1.3069C10.356 1.3069 10.1124 1.48123 9.95076 1.82989C9.79144 2.17856 9.71178 2.71079 9.71178 3.42659C9.71178 3.75216 9.73371 4.05695 9.77758 4.34096L11.3916 1.76755C11.2161 1.46045 10.9794 1.3069 10.6816 1.3069Z" fill="white"/>
<path d="M15.8 4L32 4L32 27.0921M32 27.0921L15.8 27.0921M32 27.0921L32 199L15.8 199M32 50.1842L15.8 50.1842M32 70.7105L15.8 70.7105M32 91.2368L15.8 91.2368M32 114.329L4.99999 114.329M32 137.421L15.8 137.421M32 157.947L15.8 157.947M32 178.474L15.8 178.474" stroke="white" stroke-width="0.752726"/>
</svg>
