<svg width="502" height="28" viewBox="0 0 502 28" fill="none" xmlns="http://www.w3.org/2000/svg">
<path d="M434.025 27.5L434.025 10" stroke="white" stroke-width="0.75"/>
<path d="M499 27.5L499 10" stroke="white" stroke-width="0.75"/>
<path d="M370.21 27.5L370.21 10" stroke="white" stroke-width="0.75"/>
<path d="M306.395 27.5L306.395 10" stroke="white" stroke-width="0.75"/>
<path d="M242.58 27.5L242.58 10" stroke="white" stroke-width="0.75"/>
<path d="M177.605 27.5L177.605 10" stroke="white" stroke-width="0.75"/>
<path d="M113.79 27.5L113.79 10" stroke="white" stroke-width="0.75"/>
<path d="M49.9751 27.5L49.9751 10" stroke="white" stroke-width="0.75"/>
<path d="M3 27.5L3 10" stroke="white" stroke-width="0.75"/>
<path d="M499 25L3 25" stroke="white" stroke-width="0.75"/>
<path d="M499 20L3 20" stroke="white" stroke-width="0.75"/>
<path d="M499 15L3 15" stroke="white" stroke-width="0.75"/>
<circle cx="498.5" cy="5.5" r="3.125" transform="rotate(90 498.5 5.5)" stroke="white" stroke-width="0.75"/>
<path d="M500.427 5.55943L497 5.55943L497 5.14448L499.992 5.14448L499.992 5.1244L499.436 4.28779L499.858 4.28779L500.427 5.14448L500.427 5.55943Z" fill="white"/>
<circle cx="434.5" cy="5.5" r="3.125" transform="rotate(90 434.5 5.5)" stroke="white" stroke-width="0.75"/>
<path d="M433 4.35472L433.301 4.35472L434.539 5.48581C434.684 5.61855 434.81 5.72787 434.918 5.81376C435.026 5.89965 435.127 5.96324 435.222 6.00451C435.318 6.0469 435.418 6.06809 435.523 6.06809C435.644 6.06809 435.748 6.03909 435.836 5.98108C435.924 5.9242 435.992 5.84611 436.04 5.74683C436.088 5.64756 436.112 5.53601 436.112 5.41219C436.112 5.28057 436.085 5.16567 436.03 5.06751C435.977 4.97046 435.901 4.89517 435.804 4.84163C435.707 4.7892 435.593 4.76299 435.463 4.76299L435.463 4.36811C435.664 4.36811 435.84 4.4144 435.992 4.50698C436.143 4.59957 436.262 4.72562 436.346 4.88513C436.431 5.04576 436.474 5.22591 436.474 5.42558C436.474 5.62636 436.431 5.80428 436.346 5.95933C436.262 6.11438 436.147 6.23597 436.003 6.32409C435.86 6.41222 435.699 6.45628 435.523 6.45628C435.397 6.45628 435.274 6.43341 435.153 6.38768C435.034 6.34306 434.901 6.26497 434.754 6.15343C434.607 6.04299 434.429 5.88962 434.218 5.69329L433.395 4.92361L433.368 4.92361L433.368 6.51651L433 6.51651L433 4.35472Z" fill="white"/>
<circle cx="370.5" cy="5.5" r="3.125" transform="rotate(90 370.5 5.5)" stroke="white" stroke-width="0.75"/>
<path d="M368.953 5.51258C368.953 5.29172 368.991 5.09484 369.067 4.92194C369.143 4.75016 369.248 4.61351 369.383 4.512C369.519 4.41161 369.677 4.35695 369.857 4.34803L369.857 4.76968C369.746 4.7786 369.651 4.81653 369.571 4.88346C369.491 4.95038 369.43 5.03795 369.387 5.14615C369.343 5.25435 369.321 5.37427 369.321 5.50589C369.321 5.65313 369.347 5.78365 369.398 5.89742C369.45 6.0112 369.521 6.10044 369.612 6.16514C369.704 6.22984 369.81 6.26218 369.93 6.26218C370.056 6.26218 370.167 6.23095 370.263 6.16848C370.36 6.10602 370.436 6.01455 370.491 5.89408C370.545 5.77361 370.573 5.62636 370.573 5.45235L370.573 5.17794L370.941 5.17794L370.941 5.45235C370.941 5.58844 370.965 5.70779 371.015 5.81042C371.064 5.91416 371.133 5.99503 371.222 6.05303C371.311 6.11215 371.416 6.14171 371.537 6.14171C371.653 6.14171 371.754 6.11606 371.839 6.06475C371.925 6.01343 371.992 5.94093 372.04 5.84723C372.088 5.75464 372.112 5.64533 372.112 5.51928C372.112 5.40104 372.09 5.28949 372.047 5.18463C372.005 5.0809 371.943 4.99612 371.861 4.93031C371.781 4.86449 371.684 4.8288 371.57 4.82322L371.57 4.42165C371.75 4.42834 371.907 4.48244 372.042 4.58395C372.178 4.68546 372.284 4.8182 372.36 4.98218C372.436 5.14727 372.474 5.32853 372.474 5.52597C372.474 5.73791 372.431 5.91973 372.345 6.07144C372.26 6.22314 372.148 6.33971 372.008 6.42114C371.869 6.50257 371.718 6.54328 371.557 6.54328C371.364 6.54328 371.199 6.49253 371.063 6.39102C370.927 6.29063 370.833 6.15398 370.78 5.98108L370.754 5.98108C370.718 6.19749 370.626 6.36648 370.477 6.48807C370.33 6.60965 370.148 6.67045 369.93 6.67045C369.744 6.67045 369.577 6.61969 369.428 6.51819C369.281 6.41779 369.165 6.28059 369.08 6.10658C368.996 5.93256 368.953 5.73456 368.953 5.51258Z" fill="white"/>
<circle cx="306.5" cy="5.5" r="3.125" transform="rotate(90 306.5 5.5)" stroke="white" stroke-width="0.75"/>
<path d="M305.703 4.27441L306.044 4.27441L308.427 5.7803L308.427 6.02793L307.898 6.02793L307.898 5.86061L306.098 4.72283L306.071 4.72283L306.071 6.75076L305.703 6.75076L305.703 4.27441ZM305 5.88738L305.806 5.88738L305.965 5.88738L308.427 5.88738L308.427 6.28226L305 6.28226L305 5.88738Z" fill="white"/>
<circle cx="242.5" cy="5.5" r="3.125" transform="rotate(90 242.5 5.5)" stroke="white" stroke-width="0.75"/>
<path d="M240.953 5.42558C240.953 5.22925 240.992 5.05245 241.07 4.89517C241.148 4.73789 241.255 4.61184 241.392 4.51702C241.528 4.42221 241.683 4.37034 241.857 4.36141L241.857 4.76299C241.702 4.7786 241.573 4.84888 241.472 4.97381C241.371 5.09986 241.321 5.25045 241.321 5.42558C241.321 5.56613 241.354 5.69106 241.42 5.80038C241.486 5.91081 241.576 5.99726 241.691 6.05973C241.807 6.12331 241.938 6.1551 242.084 6.1551C242.234 6.1551 242.367 6.12219 242.484 6.05638C242.602 5.99168 242.696 5.90244 242.764 5.78866C242.832 5.67489 242.866 5.54493 242.867 5.39881C242.868 5.29395 242.852 5.18631 242.819 5.07588C242.786 4.96544 242.745 4.87453 242.693 4.80314L242.74 4.41496L244.427 4.62244L244.427 6.40273L244.059 6.40273L244.059 4.97046L243.048 4.84999L243.048 4.87007C243.104 4.94035 243.15 5.02847 243.187 5.13444C243.224 5.24041 243.242 5.35084 243.242 5.46573C243.242 5.67544 243.192 5.86229 243.092 6.02626C242.992 6.19135 242.856 6.32075 242.683 6.41445C242.51 6.50926 242.313 6.55667 242.091 6.55667C241.872 6.55667 241.677 6.50759 241.505 6.40943C241.335 6.31238 241.2 6.17852 241.1 6.00786C241.002 5.83719 240.953 5.6431 240.953 5.42558Z" fill="white"/>
<circle cx="178.5" cy="5.5" r="3.125" transform="rotate(90 178.5 5.5)" stroke="white" stroke-width="0.75"/>
<path d="M176.953 5.49251C176.955 5.35196 176.982 5.21141 177.033 5.07086C177.085 4.93031 177.171 4.80203 177.293 4.68602C177.416 4.57001 177.581 4.47687 177.79 4.40659C177.999 4.33632 178.263 4.30118 178.58 4.30118C178.883 4.30118 179.152 4.32962 179.386 4.38651C179.621 4.4434 179.819 4.52595 179.98 4.63415C180.142 4.74235 180.264 4.87286 180.348 5.02568C180.432 5.17962 180.474 5.35307 180.474 5.54605C180.474 5.73791 180.435 5.90858 180.358 6.05805C180.282 6.20864 180.176 6.33134 180.04 6.42616C179.904 6.52097 179.747 6.58233 179.57 6.61021L179.57 6.20195C179.724 6.16402 179.852 6.0904 179.953 5.98108C180.055 5.87177 180.105 5.72676 180.105 5.54605C180.105 5.28057 179.99 5.07141 179.759 4.91859C179.528 4.76689 179.204 4.69048 178.787 4.68936L178.787 4.71614C178.882 4.7786 178.963 4.85278 179.03 4.93867C179.098 5.02568 179.15 5.12161 179.187 5.22647C179.224 5.33132 179.242 5.44231 179.242 5.55943C179.242 5.75576 179.193 5.93535 179.095 6.09821C178.998 6.26107 178.863 6.39158 178.692 6.48974C178.521 6.5879 178.325 6.63698 178.104 6.63698C177.892 6.63698 177.698 6.58958 177.522 6.49476C177.347 6.39995 177.207 6.26665 177.104 6.09486C177.001 5.9242 176.951 5.72341 176.953 5.49251ZM177.321 5.49251C177.321 5.63306 177.356 5.7591 177.427 5.87065C177.497 5.98332 177.591 6.072 177.709 6.13669C177.828 6.20251 177.959 6.23541 178.104 6.23541C178.246 6.23541 178.375 6.20362 178.491 6.14004C178.608 6.07757 178.701 5.99112 178.77 5.88069C178.839 5.77138 178.874 5.64644 178.874 5.50589C178.874 5.39992 178.853 5.3012 178.81 5.20973C178.769 5.11826 178.712 5.03795 178.64 4.96879C178.567 4.90075 178.484 4.8472 178.39 4.80816C178.298 4.76912 178.2 4.7496 178.098 4.7496C177.962 4.7496 177.834 4.78139 177.716 4.84497C177.598 4.90967 177.503 4.99779 177.43 5.10934C177.358 5.222 177.321 5.34973 177.321 5.49251Z" fill="white"/>
<circle cx="114.5" cy="5.5" r="3.125" transform="rotate(90 114.5 5.5)" stroke="white" stroke-width="0.75"/>
<path d="M113 4.46181L116.032 5.99447L116.059 5.99447L116.059 4.22756L116.427 4.22756L116.427 6.42281L116.039 6.42281L113 4.89684L113 4.46181Z" fill="white"/>
<circle cx="49.5" cy="5.5" r="3.125" transform="rotate(90 49.5 5.5)" stroke="white" stroke-width="0.75"/>
<path d="M47.9531 5.45235C47.9531 5.22256 47.9939 5.01954 48.0753 4.8433C48.1578 4.66817 48.2711 4.53152 48.415 4.43336C48.56 4.3352 48.7251 4.28668 48.9102 4.28779C49.0552 4.28668 49.1891 4.31512 49.3118 4.37313C49.4356 4.43113 49.5388 4.51033 49.6213 4.61072C49.705 4.71223 49.758 4.82545 49.7803 4.95039L49.8004 4.95039C49.8428 4.78641 49.9348 4.6559 50.0765 4.55885C50.2192 4.46181 50.3815 4.41384 50.5634 4.41496C50.7374 4.41384 50.893 4.4579 51.0302 4.54714C51.1674 4.63638 51.2756 4.75908 51.3548 4.91525C51.434 5.07253 51.4736 5.25156 51.4736 5.45235C51.4736 5.6509 51.434 5.82826 51.3548 5.98443C51.2756 6.1406 51.1674 6.2633 51.0302 6.35254C50.893 6.44289 50.7374 6.48863 50.5634 6.48974C50.3815 6.48863 50.2192 6.43899 50.0765 6.34083C49.9348 6.24378 49.8428 6.11494 49.8004 5.95431L49.7803 5.95431C49.758 6.07813 49.705 6.18968 49.6213 6.28896C49.5388 6.38823 49.4356 6.46743 49.3118 6.52655C49.1891 6.58567 49.0552 6.61579 48.9102 6.61691C48.7251 6.61579 48.56 6.56559 48.415 6.46632C48.2711 6.36815 48.1578 6.23151 48.0753 6.05638C47.9939 5.88236 47.9531 5.68102 47.9531 5.45235ZM48.3213 5.45235C48.3213 5.6074 48.3464 5.74126 48.3966 5.85392C48.4467 5.96658 48.5176 6.05359 48.609 6.11494C48.7005 6.17629 48.8076 6.20753 48.9303 6.20864C49.0597 6.20753 49.174 6.17406 49.2733 6.10825C49.3726 6.04244 49.4507 5.95264 49.5076 5.83886C49.5645 5.7262 49.5929 5.59736 49.5929 5.45235C49.5929 5.30622 49.5645 5.17571 49.5076 5.06082C49.4507 4.94704 49.3726 4.85724 49.2733 4.79143C49.174 4.72673 49.0597 4.69494 48.9303 4.69606C48.8076 4.69494 48.7005 4.7245 48.609 4.78474C48.5176 4.84609 48.4467 4.93365 48.3966 5.04743C48.3464 5.16121 48.3213 5.29618 48.3213 5.45235ZM49.9476 5.45235C49.9476 5.57505 49.9722 5.68381 50.0212 5.77863C50.0703 5.87456 50.1389 5.94985 50.227 6.00451C50.3152 6.05917 50.4184 6.08705 50.5366 6.08817C50.6526 6.08705 50.7536 6.05973 50.8394 6.00618C50.9265 5.95264 50.9934 5.87846 51.0402 5.78365C51.0882 5.68883 51.1122 5.5784 51.1122 5.45235C51.1122 5.32407 51.0882 5.21196 51.0402 5.11603C50.9934 5.0201 50.9265 4.94592 50.8394 4.8935C50.7536 4.84107 50.6526 4.81541 50.5366 4.81653C50.4184 4.81541 50.3152 4.84163 50.227 4.89517C50.1389 4.94983 50.0703 5.02512 50.0212 5.12105C49.9722 5.21698 49.9476 5.32742 49.9476 5.45235Z" fill="white"/>
<circle cx="3.5" cy="3.5" r="3.125" transform="rotate(90 3.5 3.5)" stroke="white" stroke-width="0.75"/>
<path d="M5.47359 3.44566C5.47248 3.58621 5.4457 3.72676 5.39328 3.86731C5.34085 4.00786 5.25384 4.13614 5.13226 4.25215C5.01178 4.36815 4.84725 4.4613 4.63866 4.53157C4.43006 4.60185 4.16848 4.63698 3.85392 4.63698C3.5494 4.63698 3.27889 4.60798 3.04241 4.54998C2.80705 4.49309 2.60849 4.41054 2.44675 4.30234C2.285 4.19526 2.1623 4.06475 2.07864 3.91081C1.99498 3.75799 1.95315 3.58509 1.95315 3.39211C1.95315 3.20025 1.99108 3.02903 2.06693 2.87844C2.1439 2.72896 2.25042 2.60626 2.38651 2.51033C2.52372 2.41551 2.68267 2.35472 2.86338 2.32795L2.86338 2.73621C2.7061 2.77302 2.57614 2.84609 2.47352 2.9554C2.37201 3.06584 2.32126 3.21141 2.32126 3.39211C2.32126 3.65648 2.43671 3.86507 2.66761 4.0179C2.89852 4.17183 3.22479 4.2488 3.64644 4.2488L3.64644 4.22203C3.55274 4.15956 3.47187 4.08538 3.40383 3.99949C3.33578 3.9136 3.28335 3.81823 3.24654 3.71337C3.20973 3.60852 3.19133 3.49697 3.19133 3.37873C3.19133 3.1824 3.23985 3.00225 3.3369 2.83828C3.43506 2.67542 3.56947 2.54491 3.74014 2.44675C3.91193 2.3497 4.10825 2.30118 4.32911 2.30118C4.53882 2.30118 4.73068 2.34803 4.9047 2.44173C5.07983 2.53654 5.21926 2.66929 5.323 2.83995C5.42674 3.01174 5.47694 3.21364 5.47359 3.44566ZM5.10548 3.44566C5.10548 3.30511 5.07035 3.1785 5.00007 3.06584C4.93091 2.95429 4.83721 2.86561 4.71897 2.7998C4.60185 2.7351 4.47189 2.70275 4.32911 2.70275C4.18633 2.70275 4.05638 2.73398 3.93925 2.79645C3.82324 2.86003 3.73066 2.94648 3.6615 3.0558C3.59346 3.16623 3.55943 3.29172 3.55943 3.43227C3.55943 3.53824 3.58007 3.63696 3.62134 3.72843C3.66373 3.8199 3.72118 3.89965 3.79368 3.9677C3.86731 4.03686 3.95041 4.09096 4.04299 4.13C4.13669 4.16904 4.2343 4.18856 4.33581 4.18856C4.46966 4.18856 4.59515 4.15621 4.71228 4.09152C4.8294 4.02793 4.92422 3.93981 4.99673 3.82715C5.06923 3.7156 5.10548 3.58844 5.10548 3.44566Z" fill="white"/>
<rect x="488.5" y="19" width="1" height="3" transform="rotate(90 488.5 19)" fill="white"/>
<rect x="431" y="19" width="1" height="3" transform="rotate(90 431 19)" fill="white"/>
<rect x="365" y="19" width="1" height="3" transform="rotate(90 365 19)" fill="white"/>
<rect x="170" y="19" width="1" height="3" transform="rotate(90 170 19)" fill="white"/>
<rect x="109" y="19" width="1" height="3" transform="rotate(90 109 19)" fill="white"/>
<rect x="46" y="19" width="1" height="3" transform="rotate(90 46 19)" fill="white"/>
<rect x="239" y="20" width="1" height="3" transform="rotate(90 239 20)" fill="white"/>
</svg>
