<svg width="18" height="14" viewBox="0 0 18 14" fill="none" xmlns="http://www.w3.org/2000/svg">
<path d="M3.27863 1.1629H3.98168L5.04435 2.98694L6.12646 1.1629H6.82951L5.38129 3.43728L6.93318 6H6.23013L5.04435 3.91677L3.76461 6H3.05832L4.67824 3.43728L3.27863 1.1629ZM8.20645 5.44922H10.429V6H7.49044V5.44922C7.89434 5.02372 8.24748 4.6479 8.54987 4.32176C8.85226 3.99561 9.06069 3.76558 9.17516 3.63167C9.39115 3.36816 9.53695 3.15541 9.61254 2.99342C9.68814 2.82926 9.72594 2.66187 9.72594 2.49124C9.72594 2.22125 9.64602 2.00958 9.48619 1.85623C9.32851 1.70287 9.11144 1.6262 8.83498 1.6262C8.63843 1.6262 8.43215 1.66184 8.21616 1.73311C8.00017 1.80439 7.77122 1.91238 7.52932 2.0571V1.39617C7.75179 1.29033 7.96994 1.21042 8.18377 1.15642C8.39976 1.10242 8.61251 1.07542 8.82202 1.07542C9.29504 1.07542 9.67518 1.20178 9.96245 1.45449C10.2519 1.70503 10.3966 2.03442 10.3966 2.44264C10.3966 2.64999 10.348 2.85734 10.2508 3.06469C10.1558 3.27204 10.0002 3.50099 9.78425 3.75154C9.6633 3.89194 9.48727 4.08633 9.25616 4.33472C9.02721 4.5831 8.6773 4.95461 8.20645 5.44922Z" fill="white"/>
<path d="M3.57746e-08 11L13.5 8.40192L13.5 13.5981L3.57746e-08 11Z" fill="white"/>
</svg>
