<svg width="52" height="31" viewBox="0 0 52 31" fill="none" xmlns="http://www.w3.org/2000/svg">
<path d="M12.0923 20.7686H13.4336L16.2717 26.7219V20.7686H17.3166V28H15.9753L13.1372 22.0468V28H12.0923V20.7686ZM22.3951 24.3795C22.3951 23.3136 22.2849 22.5522 22.0646 22.0954C21.8475 21.6385 21.4895 21.4101 20.9906 21.4101C20.4949 21.4101 20.1369 21.6385 19.9166 22.0954C19.6995 22.5522 19.591 23.3136 19.591 24.3795C19.591 25.4421 19.6995 26.2019 19.9166 26.6587C20.1369 27.1155 20.4949 27.3439 20.9906 27.3439C21.4895 27.3439 21.8475 27.1171 22.0646 26.6636C22.2849 26.2067 22.3951 25.4454 22.3951 24.3795ZM23.4205 24.3795C23.4205 25.643 23.2196 26.5858 22.8179 27.2079C22.4194 27.8299 21.8103 28.1409 20.9906 28.1409C20.1709 28.1409 19.5618 27.8315 19.1633 27.2127C18.7648 26.5939 18.5656 25.6495 18.5656 24.3795C18.5656 23.1127 18.7648 22.1683 19.1633 21.5462C19.5651 20.9242 20.1742 20.6131 20.9906 20.6131C21.8103 20.6131 22.4194 20.9242 22.8179 21.5462C23.2196 22.1683 23.4205 23.1127 23.4205 24.3795ZM24.2223 20.7443H29.7576V21.5705H27.4881V28H26.5016V21.5705H24.2223V20.7443Z" fill="white"/>
<path d="M0.417941 1.74435H1.47251L3.06652 4.4804L4.68969 1.74435H5.74426L3.57194 5.15591L5.89977 9H4.8452L3.06652 5.87516L1.14691 9H0.087476L2.51737 5.15591L0.417941 1.74435ZM11.2115 8.74243C10.962 8.87527 10.7061 8.97408 10.4437 9.03888C10.1812 9.10692 9.90261 9.14093 9.60779 9.14093C8.67795 9.14093 7.95546 8.81209 7.44032 8.1544C6.92843 7.49671 6.67248 6.57173 6.67248 5.37946C6.67248 4.19368 6.93005 3.27032 7.44518 2.60939C7.96356 1.94522 8.68443 1.61313 9.60779 1.61313C9.90261 1.61313 10.1812 1.64715 10.4437 1.71519C10.7061 1.77999 10.962 1.8788 11.2115 2.01164V3.01761C10.9718 2.81998 10.7142 2.66933 10.4388 2.56565C10.1634 2.46198 9.88641 2.41014 9.60779 2.41014C8.96953 2.41014 8.49166 2.65637 8.17415 3.14882C7.85665 3.64128 7.69789 4.38483 7.69789 5.37946C7.69789 6.37086 7.85665 7.11279 8.17415 7.60524C8.49166 8.0977 8.96953 8.34393 9.60779 8.34393C9.89289 8.34393 10.1715 8.29209 10.4437 8.18842C10.7191 8.08474 10.975 7.93409 11.2115 7.73646V8.74243Z" fill="white"/>
<rect x="0.253247" y="13.2532" width="51.4935" height="17.4935" stroke="white" stroke-width="0.506494"/>
</svg>
